<?xml version="1.0" encoding="utf-8"?>
<!-- Generator: Adobe Illustrator 25.1.0, SVG Export Plug-In . SVG Version: 6.00 Build 0)  -->
<svg version="1.1" id="Layer_1" xmlns="http://www.w3.org/2000/svg" xmlns:xlink="http://www.w3.org/1999/xlink" x="0px" y="0px"
	 viewBox="0 0 513.9 92.5" style="enable-background:new 0 0 513.9 92.5;" xml:space="preserve">
<style type="text/css">
	.Arched_x0020_Green{fill:url(#SVGID_1_);stroke:#4830e0;stroke-width:0.25;stroke-miterlimit:1;}
	.st0{fill:#4830e0;}
</style>
<linearGradient id="SVGID_1_" gradientUnits="userSpaceOnUse" x1="-49.4165" y1="442.6118" x2="-48.7094" y2="441.9047">
	<stop  offset="0" style="stop-color:#049D3B"/>
	<stop  offset="0.9831" style="stop-color:#1C2D15"/>
</linearGradient>
<g>
	<path class="st0" d="M58.8,0.3l-4.5,19.3L23.3,89L0,88.9L33.6,16l-23.2-0.1L14.2,0L58.8,0.3z"/>
	<path class="st0" d="M85.9,6.8l-2.7,11.5l6.4,0l-2.7,11.5l-6.4,0l-9.1,39c-1.1,4.8-1.5,7.5-1.1,8c0.4,0.6,2.5,0.8,6.3,0.9L74,89.3
		l-9.4-0.1c-5.3,0-9.1-0.3-11.2-0.7c-2.2-0.4-4-1.4-5.3-2.9c-1.4-1.5-2.1-3.3-2-5.2c0-2,0.9-6.6,2.6-13.8l8.6-37l-5,0l2.7-11.5l5,0
		l2.7-11.5L85.9,6.8z"/>
	<path class="st0" d="M121.2,0.6l-4.7,20.1c2.4-1.8,4.9-3.1,7.4-4c2.5-0.9,5.1-1.3,7.8-1.3c4.1,0,7.3,1,9.7,3c2.4,2,3.6,4.3,3.7,6.9
		c0,2.6-0.7,7.3-2.3,14.1l-11.7,50.2l-23.4-0.1l11.9-51.2c1-4.2,1.4-7,1.2-8.2c-0.2-1.2-1-1.8-2.5-1.8c-1.4,0-2.5,0.6-3.3,1.8
		c-0.8,1.2-1.6,3.7-2.5,7.4l-12.1,51.9l-23.4-0.1L97.8,0.5L121.2,0.6z"/>
	<path class="st0" d="M201.7,1.1L197,21.1c2.4-1.8,4.9-3.1,7.4-4c2.5-0.9,5.1-1.3,7.8-1.3c4.1,0,7.3,1,9.7,3c2.4,2,3.6,4.3,3.7,6.9
		c0,2.6-0.7,7.3-2.3,14.1l-11.7,50.2l-23.4-0.1l11.9-51.2c1-4.2,1.4-7,1.2-8.2c-0.2-1.2-1-1.8-2.5-1.8c-1.4,0-2.5,0.6-3.3,1.8
		c-0.8,1.2-1.6,3.7-2.5,7.4L181,89.9l-23.4-0.1l20.7-88.8L201.7,1.1z"/>
	<path class="st0" d="M279.5,55.3l-30.3-0.2l-3.6,15.7c-0.8,3.3-1,5.4-0.7,6.3c0.3,0.9,1.1,1.4,2.5,1.4c1.8,0,3.1-0.6,4-1.9
		c0.9-1.2,1.7-3.7,2.6-7.3l2.2-9.5l22.2,0.1l-1.3,5.4c-1,4.5-2.1,7.9-3.3,10.4c-1.2,2.4-3.2,5-6,7.7c-2.8,2.7-6.1,4.8-9.8,6.1
		c-3.7,1.3-8.1,2-13.2,2c-4.9,0-9.1-0.7-12.6-2.1c-3.5-1.4-6-3.2-7.5-5.6c-1.6-2.4-2.4-5-2.6-7.8c-0.2-2.8,0.4-7,1.7-12.4l4.9-21.2
		c1.5-6.4,3.5-11.4,6.2-15c2.7-3.7,6.3-6.5,10.9-8.4c4.6-1.9,9.6-2.9,14.9-2.9c6.6,0,11.7,1.2,15.4,3.6c3.7,2.4,6,5.5,6.8,9.4
		c0.8,3.9,0.4,9.4-1.2,16.5L279.5,55.3z M258.8,43.4l1.2-5.3c0.9-3.8,1.2-6.2,1.1-7.3c-0.2-1.1-0.9-1.7-2.2-1.7
		c-1.6,0-2.7,0.5-3.3,1.4c-0.6,0.9-1.4,3.5-2.3,7.6l-1.2,5.3L258.8,43.4z"/>
	<path class="st0" d="M308.9,45.9L287,45.8l1.1-4.9c1.3-5.6,3-10,5.1-13c2.1-3,5.4-5.7,10.1-8c4.7-2.3,10.3-3.5,16.9-3.4
		c7.9,0,13.5,1.4,16.9,4.1c3.4,2.7,5,5.9,4.9,9.8c-0.1,3.9-1.5,11.8-4.3,23.8l-8.5,36.5l-22.8-0.1l1.5-6.5c-2,2.6-4.3,4.6-6.9,5.9
		c-2.5,1.3-5.4,1.9-8.5,1.9c-4.1,0-7.5-1.1-10.4-3.3c-2.9-2.2-3.5-7-1.8-14.3l1.4-6c1.3-5.5,3-9.2,5.3-11.1c2.3-2,7.3-4.2,15-6.8
		c8.3-2.8,12.8-4.7,13.6-5.7c0.8-1,1.5-3,2.2-6c0.9-3.8,1.2-6.2,0.8-7.4c-0.3-1.1-1.2-1.7-2.5-1.7c-1.6,0-2.6,0.5-3.2,1.4
		c-0.6,1-1.4,3.5-2.3,7.5L308.9,45.9z M313.9,56c-4.3,2.6-6.9,4.7-7.9,6.5c-1,1.8-1.9,4.3-2.6,7.6c-0.9,3.8-1.2,6.2-0.9,7.3
		c0.3,1.1,1.1,1.7,2.7,1.7c1.4,0,2.5-0.4,3.1-1.3c0.6-0.9,1.4-3.1,2.2-6.8L313.9,56z"/>
	<path class="st0" d="M401.2,18.3L373.4,91L343,90.8l5.1-72.8l20.8,0.1l-5.8,53.3c1.4-4,4.5-13.6,9.3-28.7
		c2.6-8.4,5.3-16.6,7.9-24.5L401.2,18.3z"/>
	<path class="st0" d="M447.8,56.3l-30.2-0.2l-3.7,15.7c-0.8,3.3-1,5.4-0.7,6.3c0.3,0.9,1.1,1.4,2.6,1.4c1.8,0,3.1-0.6,4-1.9
		c0.9-1.2,1.8-3.7,2.6-7.3l2.2-9.5l22.2,0.1l-1.2,5.4c-1,4.5-2.1,7.9-3.3,10.3c-1.2,2.4-3.2,5-6,7.7c-2.8,2.7-6.1,4.8-9.8,6.1
		c-3.7,1.3-8.1,2-13.2,2c-4.9,0-9.2-0.7-12.6-2.1c-3.5-1.4-6-3.2-7.5-5.6c-1.6-2.4-2.4-5-2.6-7.8c-0.2-2.8,0.4-7,1.7-12.4l4.9-21.2
		c1.5-6.4,3.6-11.4,6.2-15c2.7-3.7,6.3-6.5,10.9-8.4c4.6-1.9,9.6-2.9,14.9-2.9c6.6,0,11.7,1.3,15.4,3.6c3.7,2.4,6,5.5,6.8,9.4
		c0.8,3.9,0.4,9.4-1.2,16.5L447.8,56.3z M427.1,44.4l1.2-5.3c0.9-3.8,1.2-6.2,1.1-7.3c-0.2-1.1-0.9-1.7-2.2-1.7
		c-1.6,0-2.7,0.5-3.3,1.4c-0.6,0.9-1.4,3.5-2.3,7.6l-1.2,5.3L427.1,44.4z"/>
	<path class="st0" d="M486.9,18.8l-2.1,6.8c2.3-2.7,4.9-4.7,7.6-6.1c2.8-1.3,5.7-2,8.9-2c4,0,7.1,0.9,9.2,2.7
		c2.1,1.8,3.2,4.1,3.3,6.8c0.1,2.7-0.6,7.3-2.1,13.6l-11.9,51l-23.4-0.1l11.7-50.3c1.2-5,1.7-8.1,1.6-9.1c-0.1-1.1-0.9-1.7-2.4-1.7
		c-1.6,0-2.8,0.6-3.5,1.9c-0.7,1.3-1.7,4.6-3,10.1l-11.4,49.1l-23.4-0.1L463,18.6L486.9,18.8z"/>
</g>
</svg>
